<svg xmlns="http://www.w3.org/2000/svg" viewBox="0 0 24 24" fill="#0078D4"><path d="M24 7.387v10.478c0 .23-.08.424-.238.576a.806.806 0 0 1-.588.236h-8.174v-12.4h8.174c.228 0 .423.08.588.236A.77.77 0 0 1 24 7.087v.3zM13.727 24c-.062 0-.14-.012-.235-.037L.617 20.645A.763.763 0 0 1 0 19.882V4.118c0-.339.206-.6.617-.683L13.492.037a.732.732 0 0 1 .235-.037c.243 0 .424.074.545.222.12.148.181.342.181.582v22.396c0 .24-.06.434-.181.582-.121.148-.302.222-.545.218zM6.88 15.672c.69 0 1.268-.263 1.735-.79.467-.526.7-1.2.7-2.022 0-.858-.228-1.548-.685-2.069-.457-.521-1.04-.781-1.75-.781-.695 0-1.277.263-1.744.79-.467.527-.7 1.207-.7 2.041 0 .834.228 1.51.685 2.028.457.518 1.046.777 1.767.777l-.008.026z"/></svg>
